<?xml version="1.0" standalone="no"?>
<!DOCTYPE svg PUBLIC "-//W3C//DTD SVG 20010904//EN"
 "http://www.w3.org/TR/2001/REC-SVG-20010904/DTD/svg10.dtd">
<svg version="1.0" xmlns="http://www.w3.org/2000/svg"
 width="300.000000pt" height="300.000000pt" viewBox="0 0 300.000000 300.000000"
 preserveAspectRatio="xMidYMid meet">
<metadata>
Created by potrace 1.10, written by Peter Selinger 2001-2011
</metadata>
<g transform="translate(0.000000,300.000000) scale(0.100000,-0.100000)"
fill="#000000" stroke="none">
<path d="M1415 2962 c-52 -24 -103 -76 -126 -127 -23 -50 -24 -141 -3 -195 15
-37 15 -43 0 -74 -20 -43 -21 -126 -1 -174 21 -48 77 -105 126 -127 21 -10 39
-23 39 -28 0 -14 -778 -1296 -803 -1324 -20 -22 -25 -23 -227 -23 -196 0 -209
1 -234 21 -35 27 -128 30 -156 4 -26 -24 -23 -121 5 -141 31 -23 104 -17 150
11 38 23 47 24 212 25 94 0 174 -4 177 -8 3 -5 -35 -75 -85 -157 -140 -233
-148 -225 246 -225 l291 0 74 -55 c41 -31 98 -67 128 -81 53 -25 189 -64 224
-64 23 0 23 -11 -2 -60 -24 -47 -25 -90 -5 -130 14 -27 20 -30 67 -30 37 0 54
5 64 18 21 27 17 112 -7 151 -11 18 -17 37 -12 41 4 4 43 15 86 23 97 20 207
72 288 137 l62 50 297 0 297 0 22 24 c21 22 21 26 8 57 -8 19 -49 90 -91 158
-42 69 -76 131 -76 138 0 10 37 13 168 13 150 0 170 -2 197 -20 36 -24 61 -25
111 -4 107 44 94 99 -30 134 -38 10 -46 9 -77 -9 -31 -19 -49 -21 -231 -21
-193 0 -197 0 -213 23 -17 23 -72 113 -411 670 -302 497 -394 651 -394 658 0
4 15 12 33 18 120 40 191 199 137 306 -19 37 -19 41 -4 82 41 106 -4 238 -100
297 -63 39 -159 47 -221 18z m178 -35 c45 -19 104 -88 117 -138 30 -111 -46
-234 -157 -255 -30 -6 -33 -10 -33 -40 0 -40 14 -43 75 -15 39 17 95 72 95 92
0 25 19 -5 29 -47 23 -91 -29 -190 -121 -228 -21 -9 -47 -16 -58 -16 -13 0
-20 -7 -20 -20 0 -21 28 -68 510 -860 156 -256 293 -482 306 -504 l22 -38 228
1 c212 2 230 3 250 22 25 24 20 24 89 -7 l58 -25 -52 -25 c-64 -29 -73 -30
-96 -4 -17 19 -31 20 -241 20 l-224 0 115 -187 114 -188 -311 -3 -310 -2 -51
-45 c-92 -80 -226 -139 -343 -151 l-64 -7 0 -42 c0 -31 6 -47 25 -65 30 -29
24 -41 -7 -14 -13 10 -10 4 6 -14 32 -34 26 -43 -8 -15 -12 10 -8 3 8 -15 17
-17 25 -32 19 -32 -6 0 -16 7 -23 15 -7 9 -15 13 -18 10 -3 -2 7 -14 22 -26
14 -11 23 -25 20 -31 -4 -7 -14 -1 -25 13 l-19 24 0 -22 c0 -13 -5 -23 -11
-23 -6 0 -8 9 -3 23 l6 22 -26 -24 c-34 -32 -34 -15 1 21 15 16 21 28 14 28
-11 0 -11 3 0 17 12 14 12 16 -1 11 -8 -3 -15 -15 -15 -28 0 -13 -7 -25 -15
-28 -13 -5 -13 -3 -1 11 11 14 11 17 0 17 -7 0 -1 12 14 28 34 35 36 54 2 22
-14 -13 -25 -19 -25 -14 0 5 9 17 20 27 12 10 20 29 20 46 0 16 3 36 6 45 5
13 -1 16 -33 16 -61 0 -187 36 -255 72 -34 18 -85 54 -114 80 l-52 48 -317 0
c-253 0 -315 3 -307 13 13 15 222 358 222 363 0 2 -103 4 -228 4 -228 0 -229
0 -251 -24 -12 -13 -33 -24 -47 -24 -29 1 -29 0 -2 24 19 17 21 17 15 2 -8
-23 -4 -23 17 0 16 18 15 19 -24 19 -28 0 -45 -7 -61 -24 -13 -12 -27 -23 -32
-23 -6 0 0 11 13 25 l23 25 -21 0 c-12 0 -22 5 -22 11 0 6 9 9 20 6 26 -7 26
5 0 28 -11 10 -18 21 -15 23 3 3 22 -10 43 -29 20 -19 27 -22 14 -8 -35 40
-26 47 13 9 19 -19 35 -29 35 -23 0 7 -10 19 -22 27 -12 9 -19 18 -16 22 4 3
20 -9 37 -28 17 -18 31 -28 31 -22 0 6 -7 17 -15 24 -8 7 -15 17 -15 23 0 6
12 -1 28 -16 l27 -26 235 -1 235 -1 248 408 c137 224 327 537 423 694 96 158
174 293 174 302 0 9 -13 17 -36 20 -64 11 -119 51 -148 109 -29 57 -32 91 -14
149 11 37 28 53 28 26 0 -20 60 -74 102 -91 55 -24 64 -21 64 19 0 29 -4 35
-20 35 -72 1 -158 81 -177 164 -20 91 28 187 114 230 39 19 126 21 170 3z"/>
<path d="M1440 2899 c-88 -35 -129 -151 -85 -242 20 -43 73 -83 122 -93 l31
-6 -5 48 c-3 27 -14 58 -24 69 -18 20 -18 22 4 78 12 31 25 57 28 57 3 0 16
-25 28 -56 l23 -55 -21 -23 c-15 -16 -21 -35 -21 -69 0 -54 5 -56 67 -28 74
34 118 131 93 206 -16 47 -57 95 -97 111 -37 16 -107 17 -143 3z m160 -64 c62
-60 61 -147 -2 -200 -39 -33 -58 -20 -33 23 24 40 13 113 -23 153 -25 28 -28
29 -49 14 -12 -9 -30 -40 -40 -71 -16 -53 -16 -56 2 -90 14 -25 16 -37 7 -46
-8 -8 -20 -2 -46 25 -33 32 -36 40 -36 90 0 45 5 61 27 87 34 41 58 51 116 46
36 -2 55 -10 77 -31z"/>
<path d="M1492 2731 c-8 -23 -9 -38 -2 -45 15 -15 22 -1 18 40 l-3 39 -13 -34z"/>
<path d="M1520 2717 c0 -23 4 -36 10 -32 13 8 13 35 0 55 -7 11 -10 5 -10 -23z"/>
<path d="M1324 2506 c-16 -64 38 -154 111 -187 67 -31 70 -28 70 51 0 60 -2
70 -18 70 -31 0 -91 30 -124 62 l-32 31 -7 -27z m110 -91 c28 -12 36 -21 36
-40 0 -14 -6 -25 -14 -25 -17 0 -63 36 -76 61 -13 24 3 25 54 4z"/>
<path d="M1670 2505 c-28 -31 -94 -64 -127 -65 -22 0 -23 -4 -23 -70 0 -80 5
-83 75 -51 74 33 111 99 103 180 l-3 33 -25 -27z m-20 -81 c0 -22 -57 -74 -81
-74 -32 0 -25 48 9 60 15 6 34 14 42 19 22 14 30 13 30 -5z"/>
<path d="M1389 1957 c-289 -479 -634 -1045 -652 -1070 -10 -16 -18 -29 -16
-30 2 -1 41 -1 85 1 l81 3 6 77 c21 285 259 523 557 557 l55 7 -3 283 c-2 160
1 298 7 317 6 23 9 -65 10 -283 l1 -317 74 -11 c224 -33 409 -173 496 -376 22
-51 50 -179 50 -227 l0 -33 80 0 c49 0 79 4 76 10 -2 6 -86 145 -186 310 -100
165 -275 452 -387 638 -113 185 -208 337 -212 337 -3 -1 -58 -87 -122 -193z
m77 -414 c-2 -3 -37 -11 -77 -19 -87 -18 -157 -45 -222 -85 -26 -16 -50 -29
-52 -29 -9 0 28 66 119 215 47 77 104 172 127 210 23 39 56 91 73 118 l31 48
3 -227 c1 -125 0 -229 -2 -231z m177 325 c41 -68 118 -195 171 -282 53 -88 96
-163 96 -167 0 -5 -37 11 -82 35 -71 36 -137 58 -255 82 l-23 4 0 225 c0 133
4 225 9 225 5 0 43 -55 84 -122z m577 -960 c0 -11 -8 -18 -19 -18 -20 0 -31
26 -31 70 l1 25 24 -30 c14 -16 25 -38 25 -47z m-1374 6 c-4 -15 -14 -24 -26
-24 -26 0 -25 21 2 56 19 24 23 26 26 10 2 -10 1 -28 -2 -42z"/>
<path d="M1388 1453 c-103 -20 -221 -85 -299 -163 -102 -103 -169 -256 -169
-388 l0 -47 142 2 143 2 2 47 c7 136 83 213 199 198 53 -6 54 -6 54 19 0 36
17 77 32 77 10 0 13 32 13 135 l0 135 -27 -2 c-16 -1 -56 -8 -90 -15z m82
-127 c0 -68 -4 -97 -14 -105 -8 -6 -19 -24 -26 -40 -10 -25 -18 -29 -67 -34
-96 -10 -171 -82 -189 -182 -13 -75 -14 -76 -117 -73 -90 3 -92 4 -96 28 -1
14 2 50 9 80 47 214 269 413 468 419 l32 1 0 -94z"/>
<path d="M1520 1291 l0 -180 32 10 c73 20 147 2 199 -50 41 -41 59 -91 59
-166 l0 -50 151 0 150 0 -6 65 c-28 293 -242 510 -539 545 l-46 6 0 -180z
m151 113 c191 -56 344 -221 385 -413 21 -102 20 -102 -100 -99 l-101 3 -7 53
c-20 134 -118 222 -249 222 -46 0 -49 9 -49 148 l0 102 33 0 c18 0 58 -7 88
-16z"/>
<path d="M1555 1065 l-30 -14 35 6 c19 4 46 10 60 14 24 7 24 7 -5 8 -16 0
-43 -6 -60 -14z"/>
<path d="M1581 1050 c-40 -10 -76 -22 -80 -25 -8 -9 60 4 119 21 50 15 68 10
24 -6 -45 -18 -135 -32 -171 -28 -18 2 -33 0 -33 -5 0 -6 33 -8 78 -5 87 5
188 42 162 58 -8 5 -17 9 -20 9 -3 -1 -38 -9 -79 -19z"/>
<path d="M1690 1035 c-7 -8 -20 -15 -29 -15 -9 0 -22 -5 -28 -11 -6 -6 -50
-14 -99 -19 l-89 -9 98 4 c120 4 120 -5 0 -16 l-88 -7 98 2 c58 1 91 -2 82 -7
-9 -4 -51 -9 -95 -10 -44 -1 -80 -5 -80 -9 0 -11 84 -9 140 2 43 8 60 6 48 -5
-3 -3 -45 -9 -94 -15 l-89 -9 99 4 c121 6 120 -3 -1 -15 l-88 -9 99 3 c63 2
93 0 83 -6 -9 -5 -54 -10 -101 -11 -46 -1 -79 -5 -72 -9 15 -10 80 -9 136 2
43 8 60 6 48 -5 -3 -3 -50 -10 -104 -15 l-99 -9 105 3 c68 2 96 0 81 -6 -13
-4 -58 -9 -99 -9 -47 -1 -70 -4 -61 -10 8 -4 52 -6 99 -3 113 7 96 -6 -22 -16
l-93 -8 93 2 c50 0 92 -2 92 -6 0 -3 -35 -9 -77 -13 -121 -10 -127 -13 -20
-12 53 1 97 -1 97 -4 0 -9 -137 -20 -168 -13 -24 5 -25 4 -8 -7 12 -7 45 -10
92 -7 40 3 71 1 68 -4 -3 -4 -44 -8 -92 -9 -57 0 -80 -3 -67 -9 11 -4 53 -6
94 -4 41 2 71 1 67 -4 -4 -4 -49 -9 -99 -13 l-92 -6 94 -1 c52 -1 92 -5 89 -8
-3 -3 -43 -9 -89 -14 l-84 -8 87 1 c49 1 83 -2 78 -7 -5 -5 -47 -9 -93 -10
-55 -1 -80 -4 -70 -10 9 -5 50 -6 92 -4 42 3 65 2 51 -2 -14 -5 -59 -9 -100
-9 -60 -1 -71 -4 -56 -13 25 -14 130 -4 184 17 36 15 85 64 65 65 -5 0 0 5 10
11 9 6 15 14 12 19 -3 5 -1 11 5 15 6 4 8 11 5 16 -4 5 -1 9 5 9 7 0 10 6 7
14 -3 8 -3 17 1 21 4 4 8 11 8 16 1 5 3 10 4 12 1 1 3 13 4 27 1 14 6 31 10
39 7 11 3 10 -15 -2 -37 -26 -47 -20 -14 9 21 17 23 22 8 15 -34 -17 -36 -13
-6 15 l28 25 -27 -17 c-16 -9 -28 -13 -28 -10 0 4 12 18 28 32 24 23 25 24 2
10 -37 -24 -44 -19 -13 10 25 22 25 24 3 10 -28 -18 -44 -21 -35 -6 3 6 1 10
-6 10 -7 0 0 14 17 32 l29 32 -29 -22 c-35 -27 -48 -20 -15 7 13 11 19 20 13
21 -6 0 -17 -7 -24 -15z"/>
<path d="M2845 870 c-3 -6 5 -10 19 -10 13 0 33 -3 43 -6 16 -5 16 -4 -1 10
-22 18 -52 21 -61 6z"/>
<path d="M624 698 c-48 -79 -94 -153 -102 -165 l-14 -23 252 0 251 0 -20 29
c-40 56 -80 155 -93 228 l-12 73 -87 0 -88 0 -87 -142z m224 95 c5 -10 15 -43
22 -73 7 -30 23 -78 36 -106 13 -29 20 -55 17 -58 -10 -9 -321 -7 -327 2 -6
10 119 222 142 240 25 19 99 16 110 -5z"/>
<path d="M924 789 c9 -65 45 -160 86 -227 l32 -52 234 0 234 0 0 24 c0 21 -5
24 -60 29 -115 10 -179 69 -222 205 l-23 72 -144 0 -144 0 7 -51z m253 -9 c7
-14 24 -53 39 -86 14 -34 41 -77 60 -95 19 -18 34 -37 34 -41 0 -4 -53 -8
-118 -8 -110 0 -120 2 -139 23 -43 46 -98 192 -85 225 3 9 29 12 100 10 91 -3
97 -4 109 -28z"/>
<path d="M1801 794 c-36 -141 -131 -234 -241 -234 -36 0 -40 -2 -40 -25 l0
-25 229 0 230 0 19 28 c48 67 89 172 106 270 l6 32 -149 0 -149 0 -11 -46z
m255 2 c7 -18 -21 -117 -47 -169 -38 -74 -45 -77 -179 -77 -66 0 -120 4 -120
8 0 5 9 17 20 27 31 28 79 107 97 161 9 27 21 52 27 56 6 4 53 8 104 8 72 0
94 -3 98 -14z"/>
<path d="M2136 818 c-21 -110 -31 -144 -60 -205 -19 -39 -39 -74 -45 -77 -34
-21 7 -26 235 -26 135 0 244 4 242 8 -1 4 -46 78 -98 165 l-95 156 -87 1 c-83
0 -88 -1 -92 -22z m143 -18 c19 -10 151 -219 151 -239 0 -8 -49 -11 -165 -11
-125 0 -165 3 -165 13 0 6 9 32 20 56 11 24 27 71 35 105 9 33 18 67 20 74 5
14 78 16 104 2z"/>
<path d="M2850 825 c8 -10 18 -12 29 -6 9 5 23 11 31 14 8 3 -5 6 -29 6 -37 1
-42 -1 -31 -14z"/>
<path d="M1135 424 c75 -66 244 -134 335 -134 l35 0 0 85 0 85 -205 0 -205 -1
40 -35z m333 -51 c3 -36 0 -43 -15 -43 -53 0 -223 63 -223 82 0 5 53 7 118 6
l117 -3 3 -42z"/>
<path d="M1520 374 l0 -87 61 7 c87 9 193 49 271 102 38 25 71 50 74 55 3 5
-84 9 -200 9 l-206 0 0 -86z m270 35 c0 -22 -194 -87 -226 -75 -14 5 -20 67
-7 79 11 12 233 8 233 -4z"/>
</g>
</svg>
